<?xml version="1.0" encoding="utf-8"?>
<!-- Generator: Adobe Illustrator 25.4.1, SVG Export Plug-In . SVG Version: 6.00 Build 0)  -->
<svg version="1.1" id="Layer_1" xmlns="http://www.w3.org/2000/svg" xmlns:xlink="http://www.w3.org/1999/xlink" x="0px" y="0px"
	 viewBox="0 0 70 70" style="enable-background:new 0 0 70 70;" xml:space="preserve">
<style type="text/css">
	.st0{fill-rule:evenodd;clip-rule:evenodd;fill:#A09898;}
</style>
<g id="icon_190">
	<path class="st0" d="M34.69,19.31c-5.52,0-10,4.48-10,10s4.48,10,10,10c5.52,0,10-4.48,10-10S40.21,19.31,34.69,19.31z
		 M34.69,37.31c-4.42,0-8-3.58-8-8s3.58-8,8-8s8,3.58,8,8S39.1,37.31,34.69,37.31z M34.69,11.31c-10,0-18,8-18,18
		c0,3.46,1.04,6.13,2.82,8.84h0L32.79,58.3v0c0.4,0.6,1.1,1,1.9,1h0c0.8,0,1.5-0.4,1.9-1.01l13.28-20.15
		c1.79-2.71,2.82-5.39,2.82-8.84C52.69,19.31,44.69,11.31,34.69,11.31z M48.2,37.05L34.91,57.2c-0.01,0.02-0.08,0.11-0.23,0.11
		c-0.1,0-0.17-0.04-0.21-0.09L21.18,37.05c-1.75-2.65-2.49-4.96-2.49-7.74c0-8.82,7.18-16,16-16c8.82,0,16,7.18,16,16
		C50.69,32.09,49.94,34.4,48.2,37.05z"/>
</g>
</svg>
